<?xml version="1.0" encoding="utf-8"?>
<svg xmlns="http://www.w3.org/2000/svg" viewBox="-200 36.97 900 608.517" xmlns:bx="https://boxy-svg.com" width="10" height="10" >
  <defs>
    <bx:guide x="-482.426" y="376.19" angle="0"/>
    <bx:guide x="598.428" y="146.338" angle="0"/>
    <bx:guide x="-2571.4237992572716" y="444.598771685919" angle="0"/>
    <bx:guide x="-80.938" y="545.939" angle="90"/>
    <bx:guide x="-433.888" y="721.555" angle="90"/>
    <bx:guide x="1257.8919573898918" y="-181.7852853257525" angle="90"/>
    <bx:guide x="1020.7335007305926" y="-398.09464689412437" angle="90"/>
    <bx:guide x="234.29342387889596" y="1206.1951458835752" angle="90"/>
    <linearGradient gradientUnits="userSpaceOnUse" x1="530.767" y1="365.801" x2="530.767" y2="496.808" id="gradient-2" gradientTransform="matrix(0.887785, 0.46026, -0.378445, 0.72997, 190.878213, -109.775101)">
      <stop offset="0" style="stop-color: rgb(70, 127, 144);"/>
      <stop offset="1" style="stop-opacity: 0.68;"/>
    </linearGradient>
    <linearGradient gradientUnits="userSpaceOnUse" x1="416.824" y1="369.616" x2="416.824" y2="497.94" id="gradient-1" gradientTransform="matrix(-0.770899, -0.636959, 0.611346, -0.7399, 458.481969, 1036.562328)">
      <stop offset="0" style="stop-opacity: 0.68; stop-color: rgb(0, 0, 8);"/>
      <stop offset="1" style="stop-color: rgb(70, 127, 144);"/>
    </linearGradient>
    <linearGradient gradientUnits="userSpaceOnUse" x1="750.329" y1="366.212" x2="750.329" y2="496.792" id="gradient-8" gradientTransform="matrix(0.841554, 0.540172, -0.374368, 0.58324, 235.823891, -197.702314)">
      <stop offset="0" style="stop-color: rgb(70, 127, 144);"/>
      <stop offset="1" style="stop-opacity: 0.68;"/>
    </linearGradient>
    <linearGradient gradientUnits="userSpaceOnUse" x1="640.431" y1="365.786" x2="640.431" y2="496.792" id="gradient-3" gradientTransform="matrix(0.820484, 0.571671, -0.387775, 0.55655, 254.061979, -150.758028)">
      <stop offset="0" style="stop-color: rgb(70, 127, 144);"/>
      <stop offset="1" style="stop-opacity: 0.68;"/>
    </linearGradient>
    <radialGradient gradientUnits="userSpaceOnUse" cx="726.923" cy="-67.762" r="123.725" id="gradient-9">
      <stop offset="0" style="stop-color: rgb(4.7059% 39.216% 48.627%)"/>
      <stop offset="1" style="stop-color: rgb(0% 24.692% 33.007%)"/>
    </radialGradient>
    <radialGradient gradientUnits="userSpaceOnUse" cx="738.033" cy="-245.308" r="75.918" id="gradient-10" gradientTransform="matrix(-1.402009, 3.435243, -8.836242, -3.833448, -394.839051, -3721.006314)">
      <stop offset="0" style="stop-color: rgb(4.7059% 39.216% 48.627%)"/>
      <stop offset="1" style="stop-color: rgb(0% 24.692% 33.007%)"/>
    </radialGradient>
    <radialGradient gradientUnits="userSpaceOnUse" cx="646.409" cy="-87.148" r="313.624" id="gradient-12" gradientTransform="matrix(0.986124, 0.171159, -0.206485, 1.264589, -9.025194, -87.580034)">
      <stop offset="0" style="stop-color: rgb(58.824% 96.471% 81.176%)"/>
      <stop offset="1" style="stop-color: rgb(18.291% 57.077% 43.697%)"/>
    </radialGradient>
    <radialGradient gradientUnits="userSpaceOnUse" cx="206.932" cy="315.525" r="149.054" id="gradient-13" gradientTransform="matrix(1, 0, 0, 1, 9.886169, -9.594482)">
      <stop offset="0" style="stop-color: rgb(68.235% 97.255% 71.373%)"/>
      <stop offset="1" style="stop-color: rgb(29.523% 57.332% 34.12%)"/>
    </radialGradient>
    <radialGradient gradientUnits="userSpaceOnUse" cx="2.573" cy="267.167" r="230.744" id="gradient-14">
      <stop offset="0" style="stop-color: rgb(40.784% 79.216% 34.118%)"/>
      <stop offset="1" style="stop-color: rgb(0% 47.884% 0%)"/>
    </radialGradient>
    <radialGradient gradientUnits="userSpaceOnUse" cx="147.008" cy="413.338" r="346.32" id="gradient-15">
      <stop offset="0" style="stop-color: rgb(40.784% 79.216% 34.118%)"/>
      <stop offset="1" style="stop-color: rgb(0% 47.884% 0%)"/>
    </radialGradient>
    <radialGradient gradientUnits="userSpaceOnUse" cx="288.8" cy="101.896" r="119.272" id="gradient-16">
      <stop offset="0" style="stop-color: rgb(61.961% 82.353% 86.275%)"/>
      <stop offset="1" style="stop-color: rgb(28.598% 48.38% 52.039%)"/>
    </radialGradient>
    <radialGradient gradientUnits="userSpaceOnUse" cx="686.901" cy="-228.177" r="162.217" id="gradient-11">
      <stop offset="0" style="stop-color: rgb(14.902% 84.706% 94.902%)"/>
      <stop offset="1" style="stop-color: rgb(0% 49.699% 57.343%)"/>
    </radialGradient>
    <radialGradient gradientUnits="userSpaceOnUse" cx="397.143" cy="491.007" r="65.653" id="gradient-5" gradientTransform="matrix(0.417627, -1.462129, 0.961546, 0.274645, -240.840083, 936.828419)">
      <stop offset="0" style="stop-color: rgb(2.7451% 75.294% 98.039%)"/>
      <stop offset="1" style="stop-color: rgb(0% 44.521% 59.765%)"/>
    </radialGradient>
    <radialGradient gradientUnits="userSpaceOnUse" cx="524.442" cy="482.79" r="66.213" id="gradient-6" gradientTransform="matrix(0.090827, -1.302329, 0.997577, 0.069573, -4.811448, 1132.19731)">
      <stop offset="0" style="stop-color: rgb(1.9608% 75.686% 98.431%)"/>
      <stop offset="1" style="stop-color: rgb(0% 44.731% 59.943%)"/>
    </radialGradient>
    <radialGradient gradientUnits="userSpaceOnUse" cx="605.152" cy="485.814" r="47.481" id="gradient-7" gradientTransform="matrix(0.760739, -0.852209, 0.746008, 0.665937, -221.02255, 677.58136)">
      <stop offset="0" style="stop-color: rgb(2.3529% 76.471% 99.608%)"/>
      <stop offset="1" style="stop-color: rgb(0% 45.166% 60.59%)"/>
    </radialGradient>
    <radialGradient gradientUnits="userSpaceOnUse" cx="689.422" cy="509.877" r="70.099" id="gradient-4" gradientTransform="matrix(1.461482, -0.620614, 0.390865, 0.920448, -517.449267, 468.426759)">
      <stop offset="0" style="stop-color: rgb(2.3529% 73.725% 96.078%)"/>
      <stop offset="1" style="stop-color: rgb(0% 43.662% 58.723%)"/>
    </radialGradient>
    <radialGradient gradientUnits="userSpaceOnUse" cx="250" cy="250" r="177.452" id="gradient-0" gradientTransform="matrix(1.006442, -0.000001, -0.010776, 0.993599, 1.082407, 1.602757)">
      <stop offset="0" style="stop-color: rgb(27.451% 49.804% 56.471%)"/>
      <stop offset="1" style="stop-color: rgb(3.8341% 30.557% 36.786%)"/>
    </radialGradient>
    <bx:guide x="268.949" y="352.482" angle="90"/>
    <bx:guide x="291.7479123442814" y="426.8096456375024" angle="90"/>
  </defs>
  <g transform="matrix(1.384831, 0, 0, 1.4, -99.999924, 0.000098)">
    <g transform="matrix(1.169674992561, 0, 0, 1.169420957565, 1.16247978868, -6.664234153497)" style="transform-origin: 249.997005px 250.000003px;">
      <ellipse style="fill-rule: evenodd; stroke-miterlimit: 1; stroke-width: 9.999999px; fill: rgb(171, 229, 247); stroke: rgb(16, 53, 64); transform-box: fill-box; transform-origin: 50% 50%;" cx="109.353" cy="106.649" rx="177.099" ry="177.79" transform="matrix(0.999977, -0.006779, 0.008785, 0.999963, 140.646767, 143.351251)"/>
      <path d="M 244.02 73.684 L 259.999 73.684 L 266.036 74.068 L 273.822 74.838 L 280.632 75.8 L 287.245 76.955 L 294.243 78.494 L 302.211 80.609 L 312.308 83.88 L 319.294 86.574 L 324.92 88.882 L 332.675 92.537 L 336.937 94.846 L 342.167 97.731 L 346.619 100.425 L 350.102 102.734 L 355.519 106.388 L 358.804 108.889 L 360.931 110.428 L 363.637 112.545 L 366.339 114.854 L 368.464 116.585 L 370.972 118.894 L 372.517 120.24 L 375.796 123.318 L 381.579 129.089 L 382.927 130.628 L 385.045 132.937 L 386.393 134.476 L 388.51 136.977 L 390.24 139.094 L 392.548 141.979 L 395.235 145.634 L 397.731 149.097 L 400.799 153.714 L 403.481 157.946 L 406.16 162.563 L 408.071 166.026 L 410.933 171.605 L 413.031 175.838 L 415.501 181.609 L 418.345 188.92 L 421.177 197.384 L 422.678 202.579 L 424.915 212.005 L 426.391 219.7 L 427.477 227.396 L 428.178 234.514 L 428.661 243.94 L 428.532 255.867 L 427.842 265.486 L 426.988 272.412 L 425.528 281.262 L 423.685 289.534 L 422.059 295.69 L 420.24 301.654 L 417.827 308.58 L 416.222 312.811 L 413.62 319.161 L 410.429 325.894 L 406.846 332.82 L 404.859 336.282 L 402.082 340.899 L 399.505 344.939 L 397.525 347.825 L 394.555 352.058 L 391.985 355.52 L 390.009 358.021 L 387.838 360.522 L 385.863 363.023 L 383.298 365.908 L 380.931 368.602 L 378.961 370.526 L 377.58 372.065 L 371.081 378.414 L 369.508 379.76 L 366.555 382.454 L 364.393 384.185 L 361.64 386.494 L 359.086 388.417 L 356.334 390.534 L 352.602 393.226 L 349.461 395.343 L 345.929 397.652 L 341.613 400.345 L 335.926 403.615 L 327.696 407.847 L 321.232 410.925 L 315.164 413.426 L 307.924 416.12 L 300.885 418.428 L 294.043 420.353 L 286.814 422.083 L 279.004 423.623 L 271.391 424.777 L 264.367 425.546 L 255.592 426.123 L 247.211 426.316 L 239.613 426.123 L 231.435 425.546 L 223.261 424.584 L 213.924 423.045 L 208.481 421.892 L 201.484 420.16 L 194.296 418.044 L 187.307 415.735 L 178.381 412.273 L 173.144 409.964 L 166.746 406.885 L 162.098 404.384 L 157.45 401.692 L 154.157 399.767 L 149.32 396.689 L 145.451 393.996 L 142.744 392.073 L 140.232 390.148 L 136.753 387.456 L 134.629 385.724 L 132.119 383.607 L 130.574 382.261 L 128.643 380.529 L 127.099 379.183 L 124.013 376.297 L 119 371.296 L 117.653 369.757 L 114.956 366.87 L 113.226 364.755 L 110.916 362.061 L 109.186 359.945 L 106.878 357.059 L 104.19 353.404 L 101.504 349.557 L 99.203 346.094 L 96.521 341.861 L 93.842 337.244 L 91.55 333.011 L 88.878 327.818 L 86.592 323.008 L 84.31 317.814 L 82.225 312.427 L 79.957 305.886 L 77.884 299.345 L 75.274 288.572 L 73.425 279.338 L 72.344 271.258 L 71.649 263.37 L 71.333 256.637 L 71.479 243.171 L 71.943 236.245 L 72.805 228.742 L 73.852 222.009 L 75.708 212.582 L 78.147 203.348 L 80.57 195.46 L 83.181 188.342 L 85.383 182.956 L 88.376 176.415 L 89.775 173.337 L 91.563 170.066 L 93.156 166.988 L 95.541 162.756 L 98.12 158.523 L 100.101 155.445 L 102.281 152.175 L 104.854 148.52 L 107.424 145.057 L 110.19 141.594 L 111.969 139.285 L 113.944 136.784 L 116.119 133.899 L 117.699 131.975 L 119.67 129.859 L 120.067 129.282 L 120.457 129.282 L 120.855 128.513 L 121.244 128.513 L 121.446 127.935 L 123.019 126.588 L 125.772 124.28 L 128.134 122.164 L 131.283 119.278 L 132.856 117.932 L 135.609 115.623 L 137.577 113.892 L 139.542 112.353 L 143.079 109.659 L 146.811 106.966 L 150.148 104.657 L 154.858 101.579 L 159.175 98.886 L 161.919 97.346 L 166.429 94.846 L 169.566 93.115 L 172.699 91.576 L 178.184 89.075 L 183.273 86.958 L 188.558 84.842 L 196.967 81.957 L 204.983 79.648 L 213.58 77.531 L 219.633 76.378 L 228.027 75.03 L 237.196 74.068 L 244.02 73.684 Z" style="isolation: isolate; paint-order: stroke markers; fill-rule: evenodd; stroke: rgba(150, 246, 207, 0); fill: url(&quot;#gradient-0&quot;); transform-box: fill-box; transform-origin: 50% 50%;" transform="matrix(0.638673, -0.761141, 0.777907, 0.638673, 0, 0)"/>
    </g>
    <g transform="matrix(0.193619012833, 0, 0, 0.193619012833, 245.766550840577, -281.198618889175)" style="transform-origin: 7.819336px 512.959595px;">
      <g transform="matrix(1.139231, 0.059706, -0.057909, 1.104962, -393.257874, 222.528519)" style="transform-origin: 311.238602px 74.240356px;">
        <path d="M 753.736 -193.038 C 188.326 788.86 -561.81 551.673 7.652 82.586 C -88.859 393.347 25.329 457.773 181.94 387.051 C 439.576 270.71 833.702 -171.849 753.736 -193.038 Z" style="paint-order: stroke; fill: rgb(52, 102, 44); stroke: rgb(245, 245, 245); stroke-width: 0px;"/>
        <path d="M 828.986 -445.812 L 831.986 -444.812 L 831.986 -434.812 L 830.986 -431.812 L 832.986 -426.812 L 832.986 -395.812 L 833.986 -360.812 L 834.986 -351.812 L 836.986 -310.812 L 839.986 -266.812 L 844.986 -184.812 L 847.796 -133.587 L 840.986 -136.812 L 833.986 -142.812 L 818.986 -151.812 L 791.986 -165.812 L 772.986 -175.812 C 772.986 -175.812 605.864 52.536 604.055 51.531 C 603.726 52.295 507.865 157.584 505.986 153.188 L 497.986 161.188 L 489.986 168.188 L 473.986 184.188 L 465.986 191.188 L 451.986 203.188 L 440.986 213.188 L 426.986 224.188 L 413.986 235.188 L 399.986 246.188 L 387.986 255.188 L 370.986 267.188 L 354.986 279.188 L 340.986 289.188 L 321.986 301.188 C 264.146 367.791 179.796 282.119 243.014 227.418 L 271.986 210.188 L 289.986 198.188 L 303.986 188.188 L 322.986 174.188 L 338.986 162.188 L 372.986 134.188 L 384.986 123.188 L 395.986 114.188 L 402.986 107.188 L 410.986 100.188 L 443.986 67.188 L 450.986 59.188 L 457.986 52.188 L 464.986 44.188 L 473.986 34.188 L 482.986 23.188 L 496.986 6.188 L 507.986 -6.812 L 515.986 -17.812 L 529.986 -35.812 L 536.986 -45.812 L 547.986 -61.812 L 561.986 -82.812 L 575.986 -104.812 L 586.986 -122.812 L 599.986 -144.812 L 614.986 -171.812 L 629.986 -201.812 L 632.986 -209.812 L 548.986 -209.812 L 525.986 -210.812 L 530.986 -215.812 L 546.986 -225.812 L 562.986 -237.812 L 576.986 -247.812 L 594.986 -261.812 L 613.986 -275.812 L 629.986 -288.812 L 649.986 -303.812 L 667.986 -317.812 L 680.986 -327.812 L 701.986 -343.812 L 719.986 -357.812 L 734.986 -369.812 L 751.986 -381.812 L 764.986 -391.812 L 778.986 -401.812 L 791.986 -412.812 L 804.986 -422.812 L 811.986 -431.812 L 820.986 -438.812 L 828.986 -445.812 Z" style="paint-order: stroke; fill: url(&quot;#gradient-12&quot;); stroke: rgb(245, 245, 245); stroke-width: 0px;"/>
        <path style="paint-order: stroke; fill: url(&quot;#gradient-14&quot;); stroke: rgb(245, 245, 245); stroke-width: 0px;" d="M 5.986 81.188 C -146.664 239.534 -94.671 445.862 242.841 229.278 C 242.841 229.278 221.095 342.466 151.103 399.171 C 30.201 521.571 -543.443 444.097 5.986 81.188 Z"/>
        <path d="M 832.64 -450.38 L 848.937 -139.527 C 853.95 -91.907 753.293 -188.575 753.293 -188.575 C 768.459 -174.42 677.988 -23.527 668.113 -32.744 C 621.005 26.589 510.242 -20.43 572.108 -98.35 L 599.986 -144.812 L 614.986 -171.812 L 629.986 -201.812 L 632.986 -209.812 L 548.986 -209.812 L 524.684 -211.382 L 832.64 -450.38 Z" style="paint-order: stroke; fill: url(&quot;#gradient-11&quot;); stroke: rgb(245, 245, 245); stroke-width: 0px;"/>
        <path d="M 250.986 69.188 L 406.968 -9.047 L 407.938 84.914 C 413.293 85.557 257.646 215.022 239.23 212.812 L 169.746 175.626 L 169.528 29.477 L 250.986 69.188 Z" style="paint-order: stroke; fill: url(&quot;#gradient-16&quot;); stroke: rgb(245, 245, 245); stroke-width: 0px;"/>
        <path d="M 120.251 421.691 C 114.968 427.106 242.835 219.401 243.393 228.782 C 245.683 267.267 222.496 345.857 367.32 270.051 C 332.405 303.686 142.42 421.638 120.251 421.691 Z" style="paint-order: stroke; fill: url(&quot;#gradient-13&quot;); stroke: rgb(245, 245, 245); stroke-width: 0px;"/>
        <path d="M 493.329 227.815 C 292.321 534.077 -153.208 751.875 -199.312 464.246 C 32.532 691.673 492.001 233.714 493.329 227.815 Z" style="paint-order: stroke; fill: url(&quot;#gradient-15&quot;); stroke: rgb(245, 245, 245); stroke-width: 0px;"/>
        <path d="M 603.21 53.154 C 601.599 59.546 753.801 -138.814 755.04 -188.829 L 848.707 -132.156 L 850.648 -90.575 L 761.061 -146.408 C 769.694 -145.175 618.117 55.174 603.21 53.154 Z" style="paint-order: stroke; fill: url(&quot;#gradient-9&quot;); stroke: rgb(245, 245, 245); stroke-width: 0px;"/>
        <path d="M 333.257 -56.625 L 404.986 -15.812 L 249.986 61.188 L 173.359 22.104 L 333.257 -56.625 Z" style="paint-order: stroke; stroke: rgb(245, 245, 245); stroke-width: 0px;" fill="#D9EBF0"/>
        <path d="M 256.781 -97.541 L 322.341 -63.812 L 159.986 13.188 L 90.088 -22.625 L 256.781 -97.541 Z" style="paint-order: stroke; stroke: rgb(245, 245, 245); stroke-width: 0px;" fill="#F5FAFA"/>
        <path d="M 85.986 -13.812 L 156.613 22.543 L 156.986 169.188 L 84.986 132.188 L 85.986 -13.812 Z" style="paint-order: stroke; fill: rgb(76, 134, 144); stroke: rgb(245, 245, 245); stroke-width: 0px;"/>
        <path d="M 525.771 -212.402 L 633.986 -210.812 L 615.701 -175.101 L 482.151 -178.695 L 525.771 -212.402 Z" style="paint-order: stroke; fill: url(&quot;#gradient-10&quot;); stroke: rgb(245, 245, 245); stroke-width: 0px;"/>
      </g>
      <g transform="matrix(0.877785, 0, 0, 0.877785, -639.481934, 1313.7052)" style="transform-origin: 649.062866px -123.557281px;">
        <g transform="matrix(3.906788, 0, 0, 3.906788, -2570.752686, -1808.309814)">
          <path d="M 366.383 360.306 L 463.305 361.947 C 463.376 361.674 477.203 361.554 478.758 375.21 L 481.407 375.118 L 483.81 365.024 L 488.259 361.257 L 534.836 361.344 L 539.402 367.854 L 520.163 467.223 L 526.621 467.249 L 544.654 368.845 L 551.855 361.504 L 600.45 361.525 L 605.006 372.504 L 601.861 377.673 C 603.88 368.603 614.44 361.229 627.39 360.874 L 699.723 361.177 L 702.792 366.834 L 705.689 360.971 L 756.741 361.346 L 760.775 366.612 L 754.111 404.209 L 794.447 361.089 L 836.498 362.066 L 780.935 423.248 L 780.746 428.146 L 807.652 505.899 C 803.62 506.571 745.276 505.073 745.276 505.073 L 731.292 470.021 L 733.987 468.608 L 731.974 479.678 L 730.235 496.902 L 729.538 504.811 L 675.233 504.87 L 596.338 504.886 C 586.243 505.989 578.248 487.973 584.217 487.394 C 585.34 496.18 571.933 504.689 560.911 505.002 L 474.275 503.605 C 456.795 504.041 455.201 477.619 460.597 472.294 L 462.379 464.938 L 461.644 503.704 L 401.118 503.003 L 399.295 467.54 L 397.238 467.544 L 391.415 503.524 L 336.956 503.368 L 332.974 495.947 L 360.131 366.978 L 366.383 360.306 Z M 658.988 397.712 L 655.499 400.437 L 639.284 468.394 L 677.597 469.206 L 693.736 396.159 L 658.988 397.712 Z" style="fill: rgb(104, 202, 87);"/>
          <path d="M 367.028 369.355 L 468.901 370.905 L 471.296 394.245 L 467.823 422.792 L 463.385 441.689 L 448.461 456.792 L 448.998 489.513 L 405.121 489.825 L 402.064 459.066 L 393.839 459.236 L 385.672 489.613 L 342.296 489.438 L 348.329 446.792 L 353.329 421.792 L 359.329 395.792 L 364.329 370.792 L 367.028 369.355 Z M 409.981 387.903 L 401.758 432.914 L 416.958 432.393 L 425.713 389.032 L 409.981 387.903 Z" style="fill: url(&quot;#gradient-5&quot;);"/>
          <path d="M 488.453 368.557 L 530.532 371.76 L 514.329 471.792 L 529.329 471.792 L 551.329 367.792 L 552.329 366.792 L 595 368.545 L 578.329 477.792 L 558.329 496.792 L 474 496.57 L 470.329 493.792 L 465.329 487.792 L 463.329 481.792 L 480.329 392.792 L 485.329 368.792 L 488.453 368.557 Z" style="fill: url(&quot;#gradient-6&quot;);"/>
          <path d="M 704.633 368.576 L 751.718 368.377 L 741.63 419.937 L 756.329 407.792 L 771.329 391.792 L 782.329 379.792 L 794.329 366.792 L 817.527 368.498 L 815.527 373.498 L 769.943 424.947 L 794.329 493.792 L 794.329 496.792 L 745.329 496.792 L 736.77 468.586 L 735.329 466.792 L 733.329 466.792 L 731.329 477.792 L 728.329 494.792 L 727.329 496.792 L 677.329 496.792 L 688.329 441.792 L 693.329 417.792 L 704.633 368.576 Z" style="fill: url(&quot;#gradient-4&quot;);"/>
          <path d="M 622.329 366.792 L 643.014 369.021 L 667.244 369.502 L 694.104 369.377 L 695.251 389.366 L 649.283 389.04 L 629.301 468.14 L 629.159 473.369 L 679.291 473.884 L 674.329 496.792 L 598.329 496.792 L 591.329 493.792 L 586.329 488.792 L 584.329 484.792 L 584.329 470.792 L 606.329 378.792 L 611.329 372.792 L 619.329 367.792 L 622.329 366.792 Z" style="fill: url(&quot;#gradient-7&quot;);"/>
          <path d="M 703.391 370.521 L 751.481 370.017 L 742.482 424.362 L 760.128 403.92 L 796.332 368.288 L 816.49 368.47 L 769.806 421.582 L 786.293 472.563 L 690.054 448.957 L 703.391 370.521 Z" style="fill: rgba(106, 131, 159, 0.7);"/>
          <path d="M 371.329 367.792 L 461.329 367.792 L 466.329 370.792 L 471.329 376.792 L 470.829 392.284 L 430.559 386.258 L 406.329 383.792 L 406.947 384.298 L 364.699 379.126 L 367.268 371.784 L 371.329 367.792 Z" style="fill: rgba(106, 131, 159, 0.698);"/>
          <path d="M 702.285 369.241 L 704.936 366.212 L 752.041 366.251 L 754.597 369.17 L 746.206 415.782 L 794.329 366.792 L 823.329 366.792 L 772.406 423.92 L 771.816 427.921 L 794.329 493.792 L 794.329 496.792 L 745.329 496.792 L 735.329 466.792 L 733.329 466.792 L 731.329 477.792 L 728.329 494.792 L 727.329 496.792 L 677.329 496.792 L 702.285 369.241 Z M 706.838 372.121 L 683.218 489.787 L 723.218 489.898 L 729.329 459.792 L 738.757 459.871 L 749.183 489.524 L 787.309 490.288 L 787.406 487.256 L 766.098 427.589 L 766.816 422.588 L 813.5 369.413 L 798.547 369.413 L 746.329 421.792 L 741.593 431.237 L 737.976 431.22 L 750.201 371.816 L 748.894 370.267 L 709.295 370.482 L 706.838 372.121 Z" style="" fill="#0D1B43"/>
          <path d="M 554.833 367.544 L 595.329 367.792 L 594.329 376.792 L 585.162 418.794 L 543.125 408.363 L 546.993 385.544 L 548.94 371.827 L 554.833 367.544 Z" style="fill: rgba(106, 131, 159, 0.7);"/>
          <path d="M 490.329 367.792 L 531.642 369.676 L 528.329 382.792 L 524.81 403.481 L 482.3 395.413 L 488.329 371.792 L 490.329 367.792 Z" style="fill: rgba(106, 131, 159, 0.7);"/>
          <path d="M 488.642 366.107 L 531.561 367.22 L 534.215 370.451 L 514.329 472.792 L 509.329 472.792 L 529.071 371.39 L 491.956 369.563 L 489.252 371.751 L 468.662 474.899 C 468.135 480.186 467.867 489.824 478.105 489.568 L 558.085 490.083 C 568.281 489.735 572.013 478.39 572.409 475.527 L 593.796 373.3 L 592.748 370.069 L 554.09 369.995 L 551.564 373.32 L 534.391 472.845 L 528.957 472.792 L 547.488 371.075 L 552.143 365.801 L 596.288 366.018 L 599.003 373.313 L 578.329 477.792 C 575.83 493.681 564.697 496.376 558.329 496.792 L 478.076 496.797 C 474.918 496.93 460.618 496.16 462.746 478.447 L 485.329 368.792 L 488.642 366.107 Z" fill="#0A173F"/>
          <path d="M 622.329 366.792 L 695.329 367.792 L 694.329 379.792 L 693.814 388.762 L 647.044 391.911 L 646.329 391.792 L 635.395 433.595 L 597.62 423.301 L 606.329 383.792 L 612.329 375.792 L 619.329 369.792 L 622.329 366.792 Z" style="fill: rgba(106, 131, 159, 0.7);"/>
          <path d="M 367.727 365.394 L 461.99 367.201 C 487.432 368.775 463.319 446.69 463.319 446.69 C 463.055 448.85 456.659 457.261 450.076 457.034 L 453.743 497.092 L 405.03 497.189 L 401.522 460.441 L 395.273 460.423 L 387.432 497.303 L 341.126 497.329 L 337.766 489.849 L 363.513 370.209 L 367.727 365.394 Z M 371.415 369.18 L 367.903 372.615 L 343.812 486.825 L 344.641 489.296 L 384.745 489.503 L 392.329 454.792 L 404.607 454.789 L 408.199 489.765 L 448.964 489.609 L 445.778 453.317 C 451.512 452.685 457.902 449.044 458.981 444.662 C 458.981 444.662 479.345 371.527 460.727 371.316 L 371.415 369.18 Z" fill="#0F2242"/>
          <path d="M 628.537 365.798 L 695.014 366.457 L 697.634 370.026 L 695.952 391.297 L 649.542 391.63 L 628.516 473.443 L 679.254 473.846 L 674.329 496.792 L 598.329 496.792 C 589.934 496.806 579.849 492.342 584.329 470.792 L 603.115 382.712 C 603.148 382.685 607.185 365.075 628.81 365.808 L 628.278 370.749 C 614.809 370.473 608.092 379.429 606.924 386.261 L 590.345 469.792 C 589.348 473.664 586.104 489.372 598.684 489.485 L 670.216 490.05 L 673.329 473.792 L 623.341 473.365 L 642.109 396.217 C 642.811 392.908 643.418 387.891 647.775 387.66 L 692.799 387.401 L 693.709 373.487 L 691.86 371.002 L 628.148 370.737 L 628.537 365.798 Z" fill="#0D1D3E"/>
          <path d="M 406.329 383.792 L 431.329 383.792 L 420.426 435.792 L 416.329 435.666 L 424.329 389.383 L 410.425 389.297 L 401.329 435.792 L 396.329 435.792 L 406.329 383.792 Z" fill="#102242"/>
        </g>
        <g transform="matrix(4.126584, 0, 0, 4.126584, -864.831665, -1916.211426)">
          <path d="M 380.292 361.443 L 487.293 361.675 L 480.281 376.636 L 482.668 366.604 L 487.395 361.639 L 533.072 361.877 L 537.916 369.416 L 521.389 460.61 L 526.986 461.049 L 544.291 370.546 L 551.895 361.35 L 598.279 361.599 L 603.112 374.037 L 599.986 379.175 C 601.993 370.161 612.488 361.687 625.357 361.334 L 697.088 361.711 L 699.986 368.327 L 703.627 361.583 L 752.835 361.575 L 757.913 368.183 L 751.291 405.546 L 792.827 361.471 L 832.616 361.672 L 778.151 425.047 L 777.589 429.423 L 806.205 506.352 L 742.511 505.783 L 728.613 470.949 L 731.291 469.546 L 729.291 480.546 L 727.564 497.662 L 726.871 505.523 L 672.903 505.582 L 594.498 505.598 C 584.466 506.693 576.521 488.789 582.452 488.213 C 583.568 496.946 570.244 505.402 559.291 505.712 L 473.192 504.324 C 455.82 504.758 454.237 478.5 459.6 473.208 L 461.371 465.898 L 460.64 505.256 L 349.014 505.367 L 349.962 482.365 L 416.953 391.889 L 378.995 391.86 L 380.292 361.443 Z M 656.759 399.089 L 653.291 401.796 L 637.177 469.332 L 675.252 470.14 L 691.291 397.546 L 656.759 399.089 Z" style="fill: rgb(104, 202, 87);"/>
          <path d="M 466.429 403.624 L 451.354 471.839 L 422.396 470.987 L 466.429 403.624 Z" style="fill: rgb(5, 94, 121);"/>
          <path d="M 702.285 369.241 L 704.936 366.212 L 752.041 366.251 L 754.597 369.17 L 746.206 415.782 L 794.329 366.792 L 823.329 366.792 L 772.406 423.92 L 771.816 427.921 L 794.329 493.792 L 794.329 496.792 L 745.329 496.792 L 735.329 466.792 L 733.329 466.792 L 731.329 477.792 L 728.329 494.792 L 727.329 496.792 L 677.329 496.792 L 702.285 369.241 Z" style="fill: url(&quot;#gradient-8&quot;); stroke: rgb(255, 255, 255); stroke-width: 1.914475px;"/>
          <path d="M 485.19 366.107 L 528.109 367.22 L 530.763 370.451 L 510.877 472.792 L 525.505 472.792 L 544.036 371.075 L 548.691 365.801 L 592.836 366.018 L 595.551 373.313 L 574.877 477.792 C 572.378 493.681 561.245 496.376 554.877 496.792 L 474.624 496.797 C 471.466 496.93 457.166 496.16 459.294 478.447 L 481.877 368.792 L 485.19 366.107 Z" style="paint-order: fill; fill: url(&quot;#gradient-2&quot;); stroke: rgb(255, 255, 255); stroke-width: 1.914475px;"/>
          <path d="M 628.537 365.798 L 695.014 366.457 L 697.634 370.026 L 695.952 391.297 L 649.542 391.63 L 628.516 473.443 L 679.254 473.846 L 674.329 496.792 L 598.329 496.792 C 589.934 496.806 579.849 492.342 584.329 470.792 L 603.115 382.712 C 603.148 382.685 607.185 365.075 628.81 365.808 L 628.537 365.798 Z" style="fill: url(&quot;#gradient-3&quot;); stroke: rgb(255, 255, 255); stroke-width: 1.914475px;"/>
          <path d="M 384.661 366.522 L 474.558 366.464 L 474.387 380.115 L 407.543 480.672 L 450.016 481.183 L 449.909 497.94 L 358.587 497.479 L 359.14 481.921 L 429.197 386.713 L 384.007 386.251 L 384.661 366.522 Z" style="fill: url(&quot;#gradient-1&quot;); stroke: rgb(255, 255, 255); vector-effect: non-scaling-stroke;"/>
          <path d="M 564.606 365.712 L 593.608 365.863 L 595.329 373.359 L 580.596 451.117 C 588.354 453.542 551.472 449.822 551.472 449.822 L 564.606 365.712 Z" style="fill: rgba(255, 255, 255, 0.14);"/>
          <path d="M 502.68 366.892 L 528.28 367.681 L 530.682 370.47 L 515.481 452.935 C 523.239 455.36 489.546 451.002 489.546 451.002 L 502.68 366.892 Z" style="fill: rgba(255, 255, 255, 0.14);"/>
          <path d="M 401.85 366.778 L 474.336 366.891 L 474.711 379.934 L 448.347 418.865 L 419.949 418.262 L 444.812 382.891 L 401.376 382.095 L 401.85 366.778 Z" style="fill: rgba(255, 255, 255, 0.145);"/>
          <path d="M 637.175 366.029 L 695.658 366.836 L 697.993 370.705 L 696.814 390.821 L 649.292 392.011 L 641.21 420.879 L 604.414 420.839 C 612.031 374.296 614.554 367.676 637.175 366.029 Z" style="fill: rgba(255, 255, 255, 0.14);"/>
          <path d="M 712.691 370.268 L 715.92 366.695 L 751.675 365.668 L 754.555 368.693 L 746.512 414.909 L 794.475 366.766 L 822.968 367.16 L 772.712 423.758 L 771.778 428.057 L 777.199 443.012 L 699.451 440.35 L 712.691 370.268 Z" style="fill: rgba(255, 255, 255, 0.14);"/>
          <path d="M -15.692 399.447 L -21.175 431.473 L -28.11 431.192 L -22.358 399.612 L -15.692 399.447 Z" style="fill: rgb(255, 255, 255);"/>
          <path d="M -15.465 399.257 L -20.634 431.615 L -28.11 431.191 L -22.612 399.238 L -15.465 399.257 Z" style="fill: rgb(16, 53, 64);"/>
        </g>
      </g>
    </g>
  </g>
</svg>